HIERARCHY
ROOT Hips
{
	OFFSET	0.00	0.00	0.00
	CHANNELS 6 Xposition Yposition Zposition Zrotation Xrotation Yrotation
	JOINT LeftUpLeg
	{
		OFFSET	 0.126116	-0.014019	-0.065224
		CHANNELS 3 Zrotation Xrotation Yrotation
		JOINT LeftLeg
		{
			OFFSET	 0.000000	 0.000000	 0.569914
			CHANNELS 3 Zrotation Xrotation Yrotation
			JOINT LeftFoot
			{
				OFFSET	 0.000000	 0.000000	 0.544423
				CHANNELS 3 Zrotation Xrotation Yrotation
				JOINT LeftToeBase
				{
					OFFSET	 0.000000	 0.000000	 0.207117
					CHANNELS 3 Zrotation Xrotation Yrotation
					End Site
					{
						OFFSET	 0.000000	 0.000000	 0.207117
					}
				}
			}
		}
	}
	JOINT RightUpLeg
	{
		OFFSET	-0.124023	-0.008373	-0.065224
		CHANNELS 3 Zrotation Xrotation Yrotation
		JOINT RightLeg
		{
			OFFSET	 0.000000	 0.000000	 0.570047
			CHANNELS 3 Zrotation Xrotation Yrotation
			JOINT RightFoot
			{
				OFFSET	 0.000000	 0.000000	 0.544354
				CHANNELS 3 Zrotation Xrotation Yrotation
				JOINT RightToeBase
				{
					OFFSET	 0.000000	 0.000000	 0.207540
					CHANNELS 3 Zrotation Xrotation Yrotation
					End Site
					{
						OFFSET	 0.000000	 0.000000	 0.207540
					}
				}
			}
		}
	}
	JOINT Spine
	{
		OFFSET	 0.000184	-0.007763	 0.117403
		CHANNELS 3 Zrotation Xrotation Yrotation
		JOINT Spine1
		{
			OFFSET	 0.000000	 0.000000	 0.137269
			CHANNELS 3 Zrotation Xrotation Yrotation
			JOINT Spine2
			{
				OFFSET	 0.000000	 0.000000	 0.156879
				CHANNELS 3 Zrotation Xrotation Yrotation
				JOINT LeftShoulder
				{
					OFFSET	 0.080501	-0.002496	 0.160144
					CHANNELS 3 Zrotation Xrotation Yrotation
					JOINT LeftArm
					{
						OFFSET	 0.000000	 0.000000	 0.164363
						CHANNELS 3 Zrotation Xrotation Yrotation
						JOINT LeftForeArm
						{
							OFFSET	 0.000000	 0.000000	 0.364576
							CHANNELS 3 Zrotation Xrotation Yrotation
							JOINT LeftHand
							{
								OFFSET	 0.000000	 0.000000	 0.360812
								CHANNELS 3 Zrotation Xrotation Yrotation
								JOINT LeftHandIndex1
								{
									OFFSET	 0.000000	 0.000000	 0.086006
									CHANNELS 3 Zrotation Xrotation Yrotation
									JOINT LeftHandIndex2
									{
										OFFSET	 0.000000	 0.000000	 0.047236
										CHANNELS 3 Zrotation Xrotation Yrotation
										JOINT LeftHandIndex3
										{
											OFFSET	-0.004284	-0.000551	 0.038166
											CHANNELS 3 Zrotation Xrotation Yrotation
											End Site
											{
												OFFSET	-0.004284	-0.000551	 0.038166
											}
										}
									}
								}
							}
						}
					}
				}
				JOINT Neck
				{
					OFFSET	 0.000000	 0.000000	 0.176489
					CHANNELS 3 Zrotation Xrotation Yrotation
					JOINT Head
					{
						OFFSET	 0.000000	-0.001747	 0.077940
						CHANNELS 3 Zrotation Xrotation Yrotation
						End Site
						{
							OFFSET	 0.000000	-0.001747	 0.077940
						}
					}
				}
				JOINT RightShoulder
				{
					OFFSET	-0.080363	 0.000306	 0.159706
					CHANNELS 3 Zrotation Xrotation Yrotation
					JOINT RightArm
					{
						OFFSET	 0.000000	 0.000000	 0.164196
						CHANNELS 3 Zrotation Xrotation Yrotation
						JOINT RightForeArm
						{
							OFFSET	 0.000000	 0.000000	 0.365611
							CHANNELS 3 Zrotation Xrotation Yrotation
							JOINT RightHand
							{
								OFFSET	 0.000000	 0.000000	 0.360648
								CHANNELS 3 Zrotation Xrotation Yrotation
								JOINT RightHandIndex1
								{
									OFFSET	 0.000000	 0.000000	 0.069977
									CHANNELS 3 Zrotation Xrotation Yrotation
									JOINT RightHandIndex2
									{
										OFFSET	 0.000000	 0.000000	 0.052305
										CHANNELS 3 Zrotation Xrotation Yrotation
										JOINT RightHandIndex3
										{
											OFFSET	 0.009002	-0.000782	 0.042196
											CHANNELS 3 Zrotation Xrotation Yrotation
											End Site
											{
												OFFSET	 0.009002	-0.000782	 0.042196
											}
										}
									}
								}
							}
						}
					}
				}
			}
		}
	}
}
MOTION
Frames:    4
Frame Time: 0.03333334
-16.145560	-40.487960	 0.774648	-45.467750	 10.221690	 3.230746	 5.706647	-20.840950	 175.032900	-4.168746	-37.898430	-0.999657	-1.105315	 84.343690	-0.473120	-2.333769	 36.450540	-0.184265	-2.108902	-22.723750	-178.937600	-1.977685	-42.092630	-0.997369	-1.630782	 88.223820	 0.892287	 2.395264	 25.585800	-0.059569	 0.414074	 5.241321	-1.554311	 0.777995	 4.072896	-2.215097	 0.557506	 1.637291	 0.028926	-102.387200	 88.728360	-166.774100	 65.894790	 71.125830	-74.421790	-6.822056	-4.583014	-19.413200	 6.332244	-17.453570	-5.564275	-1.679502	-12.195150	 7.834221	-5.213516	-0.193813	 3.566525	-1.378229	 35.397820	-2.634230	 0.647234	 1.311854	 0.620274	 0.434837	 3.217627	 0.157545	 96.149960	 87.856610	 170.826200	-65.718930	 79.600230	 77.104870	-1.948038	-14.842580	 24.367600	-26.222510	-18.242260	 10.061740	-8.263693	-4.349353	-39.127630	 5.070815	-0.697434	-9.399699	-2.350882	 35.473990	 5.254307
-16.141780	-40.484940	 0.774242	-45.582320	 9.447502	 3.102799	 5.608056	-20.633310	 175.437700	-4.270634	-36.324550	-1.009924	-1.178994	 83.513510	-0.506308	-2.333087	 36.527840	-0.186176	-1.983653	-22.617560	-178.947100	-2.015010	-40.411450	-0.963597	-1.518703	 86.976900	 0.734916	 2.392822	 26.319950	-0.044159	 0.417337	 5.267205	-1.565242	 0.807874	 3.857762	-2.060412	 0.615779	 1.533140	 0.032508	-101.534200	 88.592220	-167.541500	 54.625500	 68.108830	-64.546490	-4.888840	-4.313277	-17.799770	 6.399247	-17.470200	-5.562757	-2.037262	-11.171960	 7.082766	-5.213516	-0.193813	 3.566525	-1.378229	 35.397820	-2.634230	 0.712777	 1.307451	 0.643068	 0.478554	 3.035245	 0.273107	 96.592780	 87.894290	 170.253600	-50.764470	 75.758900	 64.156870	-2.076351	-12.764200	 23.262660	-23.276260	-18.251780	 10.062910	-7.426520	-4.202315	-37.110860	 5.070815	-0.697434	-9.399699	-2.350882	 35.473990	 5.254307
-16.143280	-40.485630	 0.776163	-45.574880	 9.287005	 3.056117	 5.541764	-20.443970	 175.411600	-4.321733	-36.433780	-1.086066	-1.231079	 83.579780	-0.552670	-2.330962	 36.765060	-0.192080	-1.856395	-22.299810	-178.955200	-1.998575	-40.134270	-0.881091	-1.525238	 86.699040	 0.823788	 2.394164	 25.924120	-0.052479	 0.358775	 5.334358	-1.553652	 0.809739	 3.995969	-2.058460	 0.666496	 1.648592	 0.034515	-101.372200	 88.597510	-167.758700	 54.145310	 68.203790	-63.951520	-4.821997	-4.282350	-17.420090	 6.532493	-17.498410	-5.562228	-2.320101	-11.370520	 6.409282	-5.213516	-0.193813	 3.566525	-1.378229	 35.397820	-2.634230	 0.753999	 1.399297	 0.667472	 0.541137	 3.161029	 0.352537	 96.664170	 87.911560	 170.181300	-51.332500	 75.683900	 64.653300	-2.241756	-12.726630	 23.188340	-23.286870	-18.270490	 10.065890	-7.395979	-4.240101	-37.003960	 5.070815	-0.697434	-9.399699	-2.350882	 35.473990	 5.254307
-16.145200	-40.486290	 0.775811	-45.478070	 9.132040	 2.999014	 5.476202	-20.272160	 175.391000	-4.322826	-36.488470	-1.128729	-1.272506	 83.661970	-0.568906	-2.329215	 36.957610	-0.196878	-1.766286	-21.787840	-178.978000	-1.926970	-39.526890	-0.789213	-1.504654	 86.478910	 0.902584	 2.395159	 25.617180	-0.058903	 0.259337	 5.339159	-1.546948	 0.783237	 4.144342	-2.056994	 0.702363	 1.795363	 0.035474	-101.155900	 88.607320	-168.054400	 53.703820	 68.357990	-63.403080	-4.796514	-4.256405	-17.053090	 6.684914	-17.535800	-5.561232	-2.936023	-11.607640	 4.964365	-5.213516	-0.193813	 3.566525	-1.378229	 35.397820	-2.634230	 0.770338	 1.481840	 0.709607	 0.603412	 3.358301	 0.378230	 96.761760	 87.933320	 170.079900	-51.820670	 75.650460	 65.023380	-2.372179	-12.691920	 23.133940	-23.289030	-18.295470	 10.070510	-7.356248	-4.248374	-36.895870	 5.070815	-0.697434	-9.399699	-2.350882	 35.473990	 5.254307
